<?xml version="1.0" encoding="UTF-8"?>
<!DOCTYPE svg PUBLIC "-//W3C//DTD SVG 1.1//EN" "http://www.w3.org/Graphics/SVG/1.1/DTD/svg11.dtd">
<!-- Creator: CorelDRAW 2021 (64 Bit) -->
<svg xmlns="http://www.w3.org/2000/svg" xml:space="preserve" width="53.4005mm" height="45.9584mm" version="1.1" style="shape-rendering:geometricPrecision; text-rendering:geometricPrecision; image-rendering:optimizeQuality; fill-rule:evenodd; clip-rule:evenodd"
viewBox="0 0 239.98 206.53"
 xmlns:xlink="http://www.w3.org/1999/xlink"
 xmlns:xodm="http://www.corel.com/coreldraw/odm/2003">
 <defs>
  <style type="text/css">
   <![CDATA[
    .str0 {stroke:#FEAD41;stroke-width:12.68;stroke-linecap:round;stroke-linejoin:round;stroke-miterlimit:22.9256}
    .str2 {stroke:#FEAD41;stroke-width:4.76;stroke-linecap:round;stroke-linejoin:round;stroke-miterlimit:22.9256}
    .str1 {stroke:#FEAD41;stroke-width:0.9;stroke-linecap:round;stroke-linejoin:round;stroke-miterlimit:22.9256}
    .fil0 {fill:none}
    .fil1 {fill:#FEAD41}
    .fil2 {fill:#FEAD41;fill-rule:nonzero}
   ]]>
  </style>
 </defs>
 <g id="Camada_x0020_1">
  <metadata id="CorelCorpID_0Corel-Layer"/>
  <path class="fil0 str0" d="M106.61 48.54c-1.63,6.33 -2.91,11.29 -3.81,16.9 -0.9,5.6 -1.41,11.85 -1.63,18.05 -0.21,6.2 -0.13,12.36 -0.17,15.74 -0.04,3.38 -0.21,3.98 -1.11,4.32 -0.9,0.34 -2.52,0.43 -4.06,1.11 -1.54,0.68 -2.99,1.97 -4.02,4.11 -1.03,2.14 -1.63,5.13 -1.54,8.38 0.09,3.25 0.86,6.76 1.85,9.75 0.99,2.99 2.21,5.46 4.05,8.07 1.85,2.61 4.32,5.37 6.52,6.71 2.2,1.34 4.12,1.27 5.1,3.4 0.98,2.14 1.01,6.48 1.62,10.7 0.61,4.23 1.81,8.33 3.74,12.52 1.92,4.19 4.58,8.47 7.36,11.98 2.78,3.51 5.69,6.25 8.9,8.51 3.21,2.27 6.72,4.06 10.95,5.9 4.23,1.84 9.2,3.72 13.69,4.66 4.49,0.94 8.51,0.94 12.75,0.68 4.24,-0.26 8.68,-0.77 12.92,-2.14 4.24,-1.37 8.26,-3.59 12.06,-6.97 3.81,-3.38 7.4,-7.91 10.65,-12.79 3.25,-4.88 6.16,-10.09 8.3,-14.93 2.14,-4.83 3.51,-9.28 4.45,-12.49 0.94,-3.21 1.45,-5.18 2.28,-6.16 0.82,-0.98 1.96,-0.97 3.02,-1.61 1.07,-0.64 2.08,-1.93 3.73,-3.95 1.66,-2.01 3.97,-4.75 5.59,-8.39 1.63,-3.64 2.57,-8.17 3.17,-11.63 0.6,-3.47 0.86,-5.86 0.51,-7.91 -0.34,-2.05 -1.28,-3.76 -2.61,-4.79 -1.33,-1.03 -3.04,-1.37 -4.66,-1.2 -1.63,0.17 -3.17,0.86 -4.45,1.07 -1.28,0.21 -2.31,-0.04 -2.87,-1.2 -0.56,-1.15 -0.64,-3.21 -0.13,-5.73 0.51,-2.52 1.63,-5.52 2.18,-8.73 0.56,-3.21 0.56,-6.63 0.47,-9.92 -0.09,-3.29 -0.26,-6.46 -0.77,-10.09 -0.51,-3.64 -1.37,-7.74 -2.35,-12.87 -0.98,-5.13 -2.1,-11.29 -3.81,-16.94 -1.71,-5.65 -4.02,-10.78 -7.27,-14.59 -3.25,-3.81 -7.44,-6.29 -12.7,-9.28 -5.26,-2.99 -11.59,-6.5 -18.52,-8.08 -6.93,-1.58 -14.46,-1.24 -21.39,-0.21 -6.93,1.03 -13.26,2.74 -20.23,5.9 -6.97,3.17 -14.59,7.78 -19.38,13.94 -4.79,6.16 -6.76,13.86 -8.38,20.19z"/>
  <path class="fil1 str1" d="M108.41 147.64c-0.18,-1 -0.4,-1.78 -0.62,-3.17 -0.22,-1.39 -0.45,-3.38 -0.22,-4.39 0.23,-1.02 0.91,-1.06 1.99,-0.57 1.08,0.49 2.57,1.51 3.85,2.85 1.28,1.34 2.34,3 3.34,4.34 1,1.34 1.94,2.36 2.68,3.04 0.74,0.68 1.3,1.02 1.96,1.11 0.66,0.09 1.43,-0.08 2.23,-0.74 0.81,-0.66 1.66,-1.81 3.4,-3.36 1.74,-1.55 4.38,-3.51 6.36,-4.72 1.98,-1.21 3.3,-1.68 5.55,-1.7 2.26,-0.02 5.45,0.4 8.68,0.55 3.23,0.15 6.51,0.02 9.85,-0.13 3.34,-0.15 6.74,-0.32 10.38,-0.4 3.64,-0.08 7.51,-0.08 10.62,-0.08 3.11,0 5.45,0 7.85,0.62 2.4,0.62 4.87,1.85 7,3.38 2.13,1.53 3.91,3.36 5.6,4.45 1.68,1.08 3.25,1.43 4.59,1.04 1.34,-0.38 2.45,-1.49 3.89,-3.02 1.45,-1.53 3.23,-3.49 4.6,-4.89 1.36,-1.4 2.3,-2.26 3,-2.36 0.7,-0.11 1.17,0.53 1.54,1.34 0.37,0.81 0.64,1.79 0.06,4.52 -0.58,2.73 -2.01,7.22 -4.07,12.29 -2.06,5.07 -4.76,10.71 -6.78,14.57 -2.02,3.85 -3.36,5.91 -5.4,8.58 -2.04,2.67 -4.79,5.94 -7.68,8.63 -2.9,2.7 -5.95,4.82 -9.63,6.44 -3.68,1.62 -7.99,2.75 -11.69,3.39 -3.7,0.64 -6.78,0.79 -9.94,0.64 -3.16,-0.15 -6.41,-0.61 -9.68,-1.42 -3.27,-0.81 -6.57,-1.97 -9.32,-3.05 -2.74,-1.08 -4.93,-2.09 -7.15,-3.28 -2.21,-1.19 -4.45,-2.56 -6.53,-4.13 -2.09,-1.57 -4.02,-3.32 -5.89,-5.37 -1.87,-2.04 -3.66,-4.38 -5.21,-6.7 -1.55,-2.32 -2.85,-4.63 -4.04,-7.3 -1.19,-2.67 -2.28,-5.7 -3.05,-8.68 -0.76,-2.98 -1.21,-5.92 -1.5,-8 -0.3,-2.08 -0.45,-3.3 -0.63,-4.31zm26.67 7.84c-0.85,0.37 -1.78,1.07 -2.5,2.03 -0.72,0.96 -1.24,2.18 -1.33,3.7 -0.09,1.52 0.24,3.33 0.93,4.77 0.68,1.44 1.72,2.51 2.94,3.86 1.22,1.35 2.63,2.98 3.98,4.06 1.35,1.07 2.65,1.59 3.88,2.11 1.24,0.52 2.42,1.04 3.55,1.81 1.13,0.78 2.2,1.81 3.09,2.61 0.89,0.8 1.59,1.35 2.53,1.7 0.94,0.35 2.13,0.5 3.16,0.26 1.04,-0.24 1.92,-0.87 3,-1.41 1.08,-0.54 2.35,-0.98 3.37,-0.94 1.02,0.04 1.78,0.55 2.61,1.04 0.83,0.48 1.71,0.92 2.84,1.13 1.13,0.2 2.5,0.17 3.94,-0.3 1.44,-0.46 2.96,-1.35 4.05,-2.15 1.09,-0.8 1.76,-1.5 2.41,-1.92 0.65,-0.43 1.28,-0.57 2.16,-1.04 0.89,-0.46 2.03,-1.24 3.27,-2.15 1.24,-0.91 2.57,-1.94 3.7,-3.15 1.13,-1.2 2.05,-2.57 2.78,-4 0.72,-1.42 1.24,-2.9 1.59,-4.5 0.35,-1.59 0.54,-3.29 0.26,-4.5 -0.28,-1.2 -1.02,-1.91 -2.16,-2.48 -1.15,-0.57 -2.7,-1.02 -4.44,-1.18 -1.74,-0.17 -3.66,-0.06 -5.37,-0.09 -1.7,-0.04 -3.18,-0.22 -4.5,-0.52 -1.31,-0.3 -2.46,-0.7 -4.25,-0.89 -1.79,-0.19 -4.24,-0.15 -6.9,-0.09 -2.66,0.06 -5.55,0.13 -7.84,0.09 -2.29,-0.04 -4,-0.19 -5.48,0.06 -1.48,0.24 -2.74,0.87 -4.25,1.2 -1.52,0.33 -3.29,0.37 -4.77,0.39 -1.48,0.02 -2.66,0.02 -3.64,0.04 -0.98,0.02 -1.76,0.06 -2.61,0.43z"/>
  <path class="fil1 str1" d="M101.14 91.26c0.1,0.31 0.29,0.52 2.34,0.18 2.05,-0.35 5.95,-1.25 7.95,-2.53 2,-1.28 2.11,-2.93 2.62,-6.12 0.5,-3.19 1.41,-7.92 2.73,-12.39 1.32,-4.47 3.07,-8.7 4.5,-12.13 1.43,-3.43 2.56,-6.08 4.25,-7.63 1.69,-1.55 3.94,-2 6.28,-1.97 2.34,0.03 4.76,0.53 6.84,0.9 2.08,0.37 3.83,0.59 5.32,0.17 1.49,-0.42 2.73,-1.49 4.78,-1.94 2.05,-0.45 4.92,-0.28 7.26,-0.03 2.34,0.25 4.14,0.59 5.08,0.51 0.94,-0.08 1.03,-0.59 2.21,-0.59 1.18,0 3.46,0.51 6.03,1.04 2.57,0.53 5.44,1.1 8.31,1.35 2.87,0.25 5.74,0.2 7.43,-0.08 1.69,-0.28 2.2,-0.79 3.21,-0.65 1.01,0.14 2.53,0.93 4.08,1.69 1.55,0.76 3.12,1.49 4.5,1.72 1.38,0.23 2.56,-0.06 3.26,0.14 0.7,0.2 0.93,0.87 1.46,2.34 0.53,1.46 1.38,3.71 2.67,7.96 1.29,4.25 3.04,10.5 4.14,14.65 1.1,4.16 1.55,6.22 2.11,7.8 0.57,1.58 1.25,2.68 2.57,3.68 1.32,1 3.27,1.9 4.57,2.32 1.29,0.42 1.92,0.37 2.31,0.34 0.39,-0.03 0.54,-0.05 0.75,-1.32 0.21,-1.27 0.47,-3.8 0.49,-7.21 0.02,-3.41 -0.2,-7.69 -0.62,-11.59 -0.42,-3.9 -1.03,-7.41 -1.73,-11.15 -0.7,-3.73 -1.47,-7.68 -2.32,-11.39 -0.85,-3.7 -1.76,-7.16 -2.94,-10.47 -1.18,-3.31 -2.63,-6.46 -4.22,-9.05 -1.59,-2.58 -3.32,-4.59 -4.56,-6.11 -1.24,-1.52 -1.99,-2.55 -2.44,-3.5 -0.45,-0.95 -0.6,-1.81 -0.94,-2.18 -0.34,-0.37 -0.87,-0.24 -1.82,-0.22 -0.95,0.02 -2.3,-0.07 -3.37,-0.48 -1.07,-0.41 -1.84,-1.13 -2.29,-2.01 -0.45,-0.88 -0.58,-1.92 -0.8,-2.34 -0.22,-0.42 -0.54,-0.23 -1.48,-0.44 -0.94,-0.21 -2.51,-0.83 -3.37,-1.42 -0.86,-0.59 -1.01,-1.16 -1.31,-1.39 -0.31,-0.22 -0.77,-0.1 -1.75,-0.17 -0.97,-0.07 -2.46,-0.35 -3.29,-0.93 -0.83,-0.58 -1.01,-1.46 -1.2,-2 -0.19,-0.54 -0.39,-0.74 -1.49,-0.51 -1.1,0.23 -3.1,0.87 -4.07,0.28 -0.97,-0.59 -0.91,-2.42 -1.84,-2.82 -0.93,-0.4 -2.84,0.63 -3.71,0.63 -0.87,0 -0.69,-1.03 -0.96,-1.29 -0.27,-0.26 -0.97,0.23 -2.12,0.26 -1.14,0.03 -2.71,-0.41 -3.7,-1.11 -0.98,-0.7 -1.38,-1.67 -2.04,-1.61 -0.66,0.06 -1.59,1.14 -2.39,1.63 -0.81,0.49 -1.5,0.38 -2.86,0.22 -1.37,-0.17 -3.41,-0.39 -5.35,0.11 -1.93,0.5 -3.75,1.71 -4.9,1.9 -1.14,0.18 -1.61,-0.67 -2.5,-0.42 -0.9,0.25 -2.23,1.6 -3.2,2.36 -0.97,0.77 -1.59,0.95 -1.92,0.91 -0.33,-0.04 -0.37,-0.32 -0.5,-0.28 -0.13,0.04 -0.36,0.4 -0.76,0.78 -0.4,0.38 -0.96,0.8 -1.3,0.91 -0.34,0.11 -0.44,-0.09 -0.54,-0.02 -0.1,0.07 -0.18,0.41 -0.5,0.78 -0.32,0.37 -0.87,0.77 -1.19,0.87 -0.32,0.1 -0.42,-0.1 -0.54,-0.01 -0.12,0.09 -0.28,0.47 -0.51,0.58 -0.23,0.1 -0.54,-0.07 -0.76,0.07 -0.22,0.14 -0.37,0.59 -0.86,1.04 -0.49,0.45 -1.33,0.89 -1.86,1.17 -0.53,0.28 -0.74,0.4 -0.87,0.29 -0.12,-0.11 -0.15,-0.44 -0.29,-0.36 -0.15,0.08 -0.41,0.56 -1.2,1.15 -0.79,0.59 -2.1,1.29 -3.53,2.85 -1.43,1.56 -2.97,3.98 -4.5,6.37 -1.53,2.39 -3.05,4.76 -4.61,7.72 -1.56,2.96 -3.17,6.51 -4.48,10.18 -1.31,3.67 -2.34,7.47 -3.43,12.36 -1.09,4.89 -2.25,10.87 -3,16.37 -0.75,5.5 -1.08,10.51 -1.26,13.8 -0.18,3.28 -0.2,4.83 -0.21,5.81 -0.01,0.98 -0.02,1.38 0.08,1.69z"/>
  <polygon class="fil2" points="70.15,65.66 78.42,56.12 70.67,56.12 70.67,51.64 85.25,51.64 85.25,55.5 77.01,65.04 85.56,65.04 85.56,69.52 70.15,69.52 "/>
  <polygon class="fil2" points="42.76,53.71 54.94,39.65 43.52,39.65 43.52,33.05 64.99,33.05 64.99,38.74 52.86,52.8 65.45,52.8 65.45,59.39 42.76,59.39 "/>
  <path class="fil0 str2" d="M126.57 108.84c0,0 7.51,15.71 22.69,0"/>
  <path class="fil0 str2" d="M195.7 108.84c0,0 -7.51,15.71 -22.69,0"/>
  <polygon class="fil2" points="-0,38.56 20.25,15.19 1.27,15.19 1.27,4.22 36.95,4.22 36.95,13.67 16.79,37.04 37.71,37.04 37.71,48.01 -0,48.01 "/>
 </g>
</svg>